<svg width="209.54" height="34.90" viewBox="0 0 209.54 34.90" xmlns="http://www.w3.org/2000/svg">
  <!-- Mark: stealth-grey ring with a green centre dot. The ring's inner
       (negative-space) diameter equals the wordmark cap height. -->
  <g transform="translate(17.449658203125 17.449658203125)">
    <circle cx="0" cy="0" r="14.41" fill="none" stroke="#26292e" stroke-width="4.08"/>
    <circle cx="0" cy="0" r="5.69" fill="#c8ff00"/>
  </g>
  <!-- Wordmark: "SENTINEL" in Inter 700 (tracking -1.5%), converted to paths
       so it renders identically in any context, including <img>. -->
  <path transform="translate(45.25 29.82) scale(0.016602 -0.016602)" fill="#ffffff" d="M681 -22Q502 -22 370 33Q237 88 163 196Q89 304 85 462H382Q388 387 427 336Q466 286 531 261Q596 236 678 236Q760 236 820 260Q881 283 915 326Q949 369 949 426Q949 477 918 512Q888 546 831 571Q774 596 692 615L528 656Q339 702 232 800Q125 899 125 1061Q125 1196 198 1297Q270 1398 396 1454Q523 1510 685 1510Q850 1510 973 1454Q1096 1397 1165 1296Q1234 1196 1236 1065H941Q933 1155 864 1204Q796 1253 682 1253Q605 1253 550 1231Q495 1209 466 1170Q437 1131 437 1081Q437 1026 470 990Q504 953 558 930Q613 908 676 893L811 860Q905 839 986 803Q1067 767 1128 714Q1189 662 1222 590Q1256 518 1256 424Q1256 289 1188 188Q1120 88 991 33Q862 -22 681 -22Z M1445 0V1490H2442V1237H1750V877H2389V628H1750V253H2444V0Z M2659 0V1490H2999L3470 736Q3506 678 3543 610Q3580 542 3618 459Q3657 376 3695 272H3664Q3657 355 3651 449Q3646 543 3642 629Q3638 715 3638 775V1490H3950V0H3609L3181 684Q3134 761 3094 834Q3054 906 3010 994Q2967 1082 2907 1203H2946Q2952 1095 2958 996Q2964 897 2967 816Q2971 736 2971 685V0Z M4129 1237V1490H5346V1237H4891V0H4585V1237Z M5830 1490V0H5525V1490Z M6069 0V1490H6409L6880 736Q6916 678 6953 610Q6990 542 7029 459Q7067 376 7105 272H7074Q7067 355 7062 449Q7056 543 7052 629Q7048 715 7048 775V1490H7360V0H7019L6591 684Q6544 761 6504 834Q6464 906 6421 994Q6377 1082 6317 1203H6356Q6362 1095 6368 996Q6374 897 6378 816Q6381 736 6381 685V0Z M7600 0V1490H8597V1237H7905V877H8544V628H7905V253H8599V0Z M8813 0V1490H9118V253H9761V0Z"/>
</svg>
